<svg width="60" height="60" viewBox="0 0 60 60" fill="none" xmlns="http://www.w3.org/2000/svg">
<g clip-path="url(#clip0_315_1863)">
<path d="M47.5 0H12.5C5.59644 0 0 5.59644 0 12.5V47.5C0 54.4036 5.59644 60 12.5 60H47.5C54.4036 60 60 54.4036 60 47.5V12.5C60 5.59644 54.4036 0 47.5 0Z" fill="#D9FF81"/>
<path d="M37.1002 38.015C37.1002 39.665 36.6802 41.105 35.8402 42.335C35.0002 43.565 33.8602 44.525 32.4202 45.215C31.0102 45.905 29.4502 46.25 27.7402 46.25H12.5752V14.3H28.4602C29.9602 14.3 31.2502 14.705 32.3302 15.515C33.4402 16.295 34.2802 17.315 34.8502 18.575C35.4502 19.805 35.7502 21.095 35.7502 22.445C35.7502 24.005 35.3452 25.475 34.5352 26.855C33.7552 28.205 32.6302 29.21 31.1602 29.87C32.9902 30.41 34.4302 31.415 35.4802 32.885C36.5602 34.325 37.1002 36.035 37.1002 38.015ZM33.0052 37.295C33.0052 36.305 32.7802 35.39 32.3302 34.55C31.9102 33.71 31.3252 33.035 30.5752 32.525C29.8552 32.015 29.0152 31.76 28.0552 31.76H16.6252V42.74H27.7402C28.7302 42.74 29.6152 42.485 30.3952 41.975C31.2052 41.465 31.8352 40.805 32.2852 39.995C32.7652 39.155 33.0052 38.255 33.0052 37.295ZM16.6252 17.81V28.475H26.7952C27.7552 28.475 28.5952 28.235 29.3152 27.755C30.0652 27.275 30.6502 26.63 31.0702 25.82C31.5202 25.01 31.7452 24.125 31.7452 23.165C31.7452 22.145 31.5352 21.245 31.1152 20.465C30.7252 19.655 30.1702 19.01 29.4502 18.53C28.7602 18.05 27.9652 17.81 27.0652 17.81H16.6252ZM41.5 47.5V12.5H48V47.5H41.5Z" fill="#0E0E10"/>
<path d="M32.4202 45.2151L31.8799 44.0878L31.8707 44.0923L32.4202 45.2151ZM12.5752 46.2501H11.3252V47.5001H12.5752V46.2501ZM12.5752 14.3V13.05H11.3252V14.3H12.5752ZM32.3302 15.515L31.5802 16.515L31.5957 16.5266L31.6114 16.5378L32.3302 15.515ZM34.8502 18.575L33.7112 19.0902L33.7187 19.1068L33.7267 19.1231L34.8502 18.575ZM34.5352 26.8551L33.4572 26.2223L33.4529 26.2298L34.5352 26.8551ZM31.1602 29.8701L30.6482 28.7298L27.5672 30.1131L30.8064 31.069L31.1602 29.8701ZM35.4802 32.8851L34.4627 33.6118L34.4802 33.6351L35.4802 32.8851ZM32.3302 34.5501L31.2117 35.1093L31.2284 35.1403L32.3302 34.5501ZM30.5752 32.5251L29.8524 33.5453L29.8722 33.5588L30.5752 32.5251ZM16.6252 31.7601V30.5101H15.3752V31.7601H16.6252ZM16.6252 42.7401H15.3752V43.9901H16.6252V42.7401ZM30.3952 41.9751L29.7292 40.9171L29.7112 40.9288L30.3952 41.9751ZM32.2852 39.9951L31.1997 39.3748L31.1924 39.3881L32.2852 39.9951ZM16.6252 17.8101V16.5601H15.3752V17.8101H16.6252ZM16.6252 28.4751H15.3752V29.7251H16.6252V28.4751ZM29.3152 27.7551L28.6412 26.7021L28.6219 26.7151L29.3152 27.7551ZM31.0702 25.8201L29.9774 25.2131L29.9687 25.2288L29.9604 25.2446L31.0702 25.8201ZM31.1152 20.465L29.9889 21.0073L30.0012 21.0328L30.0147 21.0577L31.1152 20.465ZM29.4502 18.5301L28.7362 19.5564L28.7567 19.5701L29.4502 18.5301ZM35.8502 38.0151C35.8502 39.4418 35.4909 40.6301 34.8079 41.6301L36.8724 43.0401C37.8694 41.58 38.3502 39.8883 38.3502 38.0151H35.8502ZM34.8079 41.6301C34.1009 42.6653 33.1364 43.4858 31.8799 44.0878L32.9604 46.3423C34.584 45.5643 35.8995 44.4648 36.8724 43.0401L34.8079 41.6301ZM31.8707 44.0923C30.6467 44.6913 29.2769 45.0001 27.7402 45.0001V47.5001C29.6234 47.5001 31.3737 47.1188 32.9697 46.3378L31.8707 44.0923ZM27.7402 45.0001H12.5752V47.5001H27.7402V45.0001ZM13.8252 46.2501V14.3H11.3252V46.2501H13.8252ZM12.5752 15.55H28.4602V13.05H12.5752V15.55ZM28.4602 15.55C29.7214 15.55 30.7407 15.8853 31.5802 16.515L33.0802 14.5151C31.7599 13.5248 30.1989 13.05 28.4602 13.05V15.55ZM31.6114 16.5378C32.5349 17.1866 33.2317 18.0298 33.7112 19.0902L35.9892 18.0598C35.3287 16.6003 34.3454 15.4034 33.0489 14.4923L31.6114 16.5378ZM33.7267 19.1231C34.2447 20.1848 34.5002 21.2876 34.5002 22.445H37.0002C37.0002 20.9024 36.6557 19.4253 35.9737 18.027L33.7267 19.1231ZM34.5002 22.445C34.5002 23.7766 34.1577 25.0291 33.4572 26.2223L35.6132 27.4878C36.5327 25.9211 37.0002 24.2334 37.0002 22.445H34.5002ZM33.4529 26.2298C32.8087 27.3443 31.8872 28.1733 30.6482 28.7298L31.6722 31.0103C33.3732 30.2468 34.7017 29.0658 35.6174 27.4803L33.4529 26.2298ZM30.8064 31.069C32.3849 31.5348 33.5844 32.3823 34.4627 33.6118L36.4974 32.1586C35.2757 30.4481 33.5954 29.2853 31.5139 28.6711L30.8064 31.069ZM34.4802 33.6351C35.3817 34.8368 35.8502 36.2771 35.8502 38.0151H38.3502C38.3502 35.7931 37.7387 33.8133 36.4802 32.135L34.4802 33.6351ZM34.2552 37.2951C34.2552 36.1073 33.9832 34.9886 33.4319 33.9598L31.2284 35.1403C31.5772 35.7916 31.7552 36.5028 31.7552 37.2951H34.2552ZM33.4482 33.9911C32.9362 32.9671 32.2112 32.1258 31.2782 31.4913L29.8722 33.5588C30.4392 33.9443 30.8837 34.4533 31.2117 35.1093L33.4482 33.9911ZM31.2977 31.5051C30.3477 30.8321 29.2502 30.5101 28.0552 30.5101V33.0101C28.7802 33.0101 29.3624 33.1983 29.8524 33.5453L31.2977 31.5051ZM28.0552 30.5101H16.6252V33.0101H28.0552V30.5101ZM15.3752 31.7601V42.7401H17.8752V31.7601H15.3752ZM16.6252 43.9901H27.7402V41.4901H16.6252V43.9901ZM27.7402 43.9901C28.9572 43.9901 30.0829 43.6726 31.0792 43.0213L29.7112 40.9288C29.1474 41.2976 28.5032 41.4901 27.7402 41.4901V43.9901ZM31.0612 43.0328C32.0429 42.4148 32.8224 41.6021 33.3779 40.6021L31.1924 39.3881C30.8479 40.0081 30.3674 40.5151 29.7292 40.9171L31.0612 43.0328ZM33.3704 40.6153C33.9574 39.5878 34.2552 38.4743 34.2552 37.2951H31.7552C31.7552 38.0358 31.5727 38.7223 31.1997 39.3748L33.3704 40.6153ZM15.3752 17.8101V28.4751H17.8752V17.8101H15.3752ZM16.6252 29.7251H26.7952V27.2251H16.6252V29.7251ZM26.7952 29.7251C27.9739 29.7251 29.0612 29.4268 30.0087 28.7951L28.6219 26.7151C28.1292 27.0433 27.5364 27.2251 26.7952 27.2251V29.7251ZM29.9889 28.8078C30.9284 28.2068 31.6617 27.3951 32.1799 26.3956L29.9604 25.2446C29.6387 25.8651 29.2017 26.3431 28.6412 26.7021L29.9889 28.8078ZM32.1629 26.4271C32.7199 25.4246 32.9952 24.3295 32.9952 23.1651H30.4952C30.4952 23.9206 30.3204 24.5955 29.9774 25.2131L32.1629 26.4271ZM32.9952 23.1651C32.9952 21.9698 32.7477 20.8604 32.2157 19.8724L30.0147 21.0577C30.3227 21.6297 30.4952 22.3204 30.4952 23.1651H32.9952ZM32.2414 19.9228C31.7582 18.9193 31.0572 18.0991 30.1437 17.49L28.7567 19.5701C29.2832 19.921 29.6922 20.3908 29.9889 21.0073L32.2414 19.9228ZM30.1639 17.5039C29.2494 16.8677 28.2014 16.5601 27.0652 16.5601V19.0601C27.7289 19.0601 28.2707 19.2326 28.7362 19.5564L30.1639 17.5039ZM27.0652 16.5601H16.6252V19.0601H27.0652V16.5601Z" fill="#0E0E10"/>
</g>
<defs>
<clipPath id="clip0_315_1863">
<rect width="60" height="60" fill="white"/>
</clipPath>
</defs>
</svg>
