<svg width="619" height="295" viewBox="0 0 619 295" fill="none" xmlns="http://www.w3.org/2000/svg">
<path d="M354.8 0.00537109H337.673V294.03H354.158H383.742H399.639V0.00537109H384.437H354.8Z" fill="white"/>
<path d="M463.255 0.00537109H447.18V294.03H464.77H494.425H509.093V0.00537109H492.964H463.255Z" fill="white"/>
<path d="M618.599 294.032V0.00720215H601.935H571.994H556.632V294.032H570.943H600.884H618.599Z" fill="white"/>
<path d="M294.644 43.8056L191.42 147.029L294.644 250.253L284.182 260.715L263.206 281.709L250.873 294.023L166.719 209.922L105.43 147.796L221.913 28.96L250.873 -0.000366211L294.644 43.8056Z" fill="white"/>
<path d="M69.5954 181.28L0.625 250.251L44.431 294.021L113.081 225.371L69.5954 181.28Z" fill="white"/>
<path d="M70.3496 113.529L113.692 69.3131L44.4188 0.00415039L32.6743 11.7665L0.630615 43.8101L70.3496 113.529Z" fill="white"/>
</svg>
