<svg width="71" height="26" viewBox="0 0 71 26" fill="none" xmlns="http://www.w3.org/2000/svg">
<path d="M4.7807 10.528C4.7807 11.5168 4.89948 12.4087 5.13703 13.2036C5.39438 13.9985 5.7507 14.6868 6.20601 15.2685C6.68111 15.8307 7.25519 16.267 7.92825 16.5772C8.60131 16.8874 9.37335 17.0425 10.2444 17.0425C11.0956 17.0425 11.8577 16.8874 12.5308 16.5772C13.2236 16.267 13.7977 15.8307 14.253 15.2685C14.7281 14.6868 15.0845 13.9985 15.322 13.2036C15.5794 12.4087 15.708 11.5168 15.708 10.528C15.708 9.53915 15.5794 8.64728 15.322 7.85235C15.0845 7.03803 14.7281 6.34974 14.253 5.78747C13.7977 5.20582 13.2236 4.75988 12.5308 4.44966C11.8577 4.13945 11.0956 3.98434 10.2444 3.98434C9.37335 3.98434 8.60131 4.14914 7.92825 4.47875C7.25519 4.78896 6.68111 5.2349 6.20601 5.81656C5.7507 6.37882 5.39438 7.06711 5.13703 7.88143C4.89948 8.67636 4.7807 9.55854 4.7807 10.528ZM20.4887 10.528C20.4887 12.2535 20.2215 13.7755 19.687 15.094C19.1723 16.393 18.4597 17.4884 17.549 18.3803C16.6384 19.2528 15.5497 19.912 14.2827 20.3579C13.0356 20.8039 11.6895 21.0268 10.2444 21.0268C8.83886 21.0268 7.51254 20.8039 6.2654 20.3579C5.01826 19.912 3.92948 19.2528 2.99908 18.3803C2.06867 17.4884 1.33622 16.393 0.801733 15.094C0.267244 13.7755 0 12.2535 0 10.528C0 8.80239 0.277142 7.29008 0.831427 5.99105C1.38571 4.67263 2.12806 3.56749 3.05846 2.67562C4.00867 1.78374 5.09744 1.11484 6.32478 0.668904C7.57192 0.222968 8.87845 0 10.2444 0C11.6499 0 12.9762 0.222968 14.2233 0.668904C15.4705 1.11484 16.5593 1.78374 17.4897 2.67562C18.4201 3.56749 19.1525 4.67263 19.687 5.99105C20.2215 7.29008 20.4887 8.80239 20.4887 10.528Z" fill="white"/>
<path d="M34.06 13.0872C34.06 11.7494 33.7531 10.6831 33.1395 9.88814C32.5258 9.07382 31.6152 8.66667 30.4076 8.66667C30.0117 8.66667 29.6455 8.68606 29.309 8.72483C28.9724 8.74422 28.6953 8.7733 28.4775 8.81208V16.6353C28.7547 16.8098 29.111 16.9553 29.5465 17.0716C30.0018 17.1879 30.4571 17.2461 30.9124 17.2461C33.0108 17.2461 34.06 15.8598 34.06 13.0872ZM38.5734 12.9709C38.5734 14.1536 38.425 15.2297 38.128 16.1991C37.8311 17.1685 37.3956 18.0022 36.8215 18.7002C36.2474 19.3982 35.5348 19.9411 34.6835 20.3289C33.8323 20.7166 32.8524 20.9105 31.7439 20.9105C31.1302 20.9105 30.5561 20.8523 30.0216 20.736C29.4871 20.6197 28.9724 20.4549 28.4775 20.2416V26H24.0532V5.84564C24.4491 5.72931 24.9044 5.62267 25.4191 5.52573C25.9338 5.4094 26.4682 5.31245 27.0225 5.2349C27.5966 5.15734 28.1707 5.09918 28.7448 5.0604C29.3387 5.00224 29.9028 4.97315 30.4373 4.97315C31.7241 4.97315 32.8722 5.16704 33.8818 5.55481C34.8914 5.92319 35.7426 6.45638 36.4355 7.15436C37.1283 7.83296 37.6529 8.66667 38.0092 9.65548C38.3854 10.6443 38.5734 11.7494 38.5734 12.9709Z" fill="white"/>
<path d="M51.9806 13.0872C51.9806 11.7494 51.6738 10.6831 51.0601 9.88814C50.4465 9.07382 49.5359 8.66667 48.3283 8.66667C47.9324 8.66667 47.5662 8.68606 47.2296 8.72483C46.8931 8.74422 46.616 8.7733 46.3982 8.81208V16.6353C46.6754 16.8098 47.0317 16.9553 47.4672 17.0716C47.9225 17.1879 48.3778 17.2461 48.8331 17.2461C50.9315 17.2461 51.9806 15.8598 51.9806 13.0872ZM56.4941 12.9709C56.4941 14.1536 56.3456 15.2297 56.0487 16.1991C55.7518 17.1685 55.3163 18.0022 54.7422 18.7002C54.1681 19.3982 53.4554 19.9411 52.6042 20.3289C51.753 20.7166 50.7731 20.9105 49.6645 20.9105C49.0509 20.9105 48.4768 20.8523 47.9423 20.736C47.4078 20.6197 46.8931 20.4549 46.3982 20.2416V26H41.9738V5.84564C42.3697 5.72931 42.8251 5.62267 43.3397 5.52573C43.8544 5.4094 44.3889 5.31245 44.9432 5.2349C45.5173 5.15734 46.0914 5.09918 46.6655 5.0604C47.2593 5.00224 47.8235 4.97315 48.358 4.97315C49.6447 4.97315 50.7929 5.16704 51.8025 5.55481C52.8121 5.92319 53.6633 6.45638 54.3562 7.15436C55.049 7.83296 55.5736 8.66667 55.9299 9.65548C56.306 10.6443 56.4941 11.7494 56.4941 12.9709Z" fill="white"/>
<path d="M64.3783 17.5078C65.1899 17.5078 65.764 17.4303 66.1005 17.2752C66.4371 17.1201 66.6053 16.8195 66.6053 16.3736C66.6053 16.0246 66.3876 15.7241 65.952 15.472C65.5165 15.2006 64.8534 14.9001 63.9626 14.5705C63.2697 14.3184 62.6362 14.0567 62.0622 13.7852C61.5079 13.5138 61.0328 13.1939 60.6369 12.8255C60.2409 12.4377 59.9341 11.9821 59.7164 11.4586C59.4986 10.9351 59.3897 10.305 59.3897 9.56823C59.3897 8.13348 59.9341 6.99925 61.0229 6.16555C62.1116 5.33184 63.6062 4.91499 65.5066 4.91499C66.4568 4.91499 67.3675 5.00224 68.2385 5.17673C69.1095 5.33184 69.8024 5.50634 70.317 5.70022L69.545 9.07383C69.0303 8.89933 68.4661 8.74422 67.8525 8.6085C67.2586 8.47278 66.5855 8.40492 65.8333 8.40492C64.4476 8.40492 63.7547 8.783 63.7547 9.53915C63.7547 9.71365 63.7844 9.86876 63.8438 10.0045C63.9032 10.1402 64.022 10.2759 64.2001 10.4116C64.3783 10.528 64.6158 10.6637 64.9128 10.8188C65.2295 10.9545 65.6254 11.1096 66.1005 11.2841C67.0705 11.6331 67.8723 11.9821 68.5057 12.3311C69.1392 12.6607 69.6341 13.0291 69.9904 13.4362C70.3665 13.824 70.6239 14.2603 70.7625 14.745C70.9208 15.2297 71 15.7919 71 16.4318C71 17.9441 70.416 19.088 69.2481 19.8635C68.0999 20.6391 66.4667 21.0268 64.3486 21.0268C62.9629 21.0268 61.8048 20.9105 60.8744 20.6779C59.9638 20.4452 59.3303 20.2513 58.974 20.0962L59.7164 16.5772C60.4686 16.868 61.2406 17.1007 62.0325 17.2752C62.8243 17.4303 63.6062 17.5078 64.3783 17.5078Z" fill="white"/>
</svg>
