<svg width="1849" height="786" viewBox="0 0 1849 786" fill="none" xmlns="http://www.w3.org/2000/svg">
<g clip-path="url(#clip0_417_3404)">
<path d="M793.191 411.971H791.955V530.772H793.191V411.971Z" fill="#020212"/>
<path d="M1844.62 25.463H1843.39V150.491H1844.62V25.463Z" fill="#020212"/>
<path d="M1822.71 68.5549H1821.48V160.553H1822.71V68.5549Z" fill="#020212"/>
<path d="M1800.8 34.1226H1799.56V98.0801H1800.8V34.1226Z" fill="#020212"/>
<path d="M1778.89 25.1331H1777.65V157.378H1778.89V25.1331Z" fill="#020212"/>
<path d="M1756.98 116.43H1755.74V153.46H1756.98V116.43Z" fill="#020212"/>
<path d="M1735.11 124.677H1733.87V170.326H1735.11V124.677Z" fill="#020212"/>
<path d="M1713.2 86.6576H1711.96V304.179H1713.2V86.6576Z" fill="#020212"/>
<path d="M1691.29 208.387H1690.05V270.654H1691.29V208.387Z" fill="#020212"/>
<path d="M1669.38 234.696H1668.14V293.128H1669.38V234.696Z" fill="#020212"/>
<path d="M1647.47 213.253H1646.23V315.766H1647.47V213.253Z" fill="#020212"/>
<path d="M1625.55 238.283H1624.32V326.9H1625.55V238.283Z" fill="#020212"/>
<path d="M1603.64 294.777H1602.41V411.682H1603.64V294.777Z" fill="#020212"/>
<path d="M1581.77 308.426H1580.54V392.755H1581.77V308.426Z" fill="#020212"/>
<path d="M1559.86 217.624H1558.63V421.702H1559.86V217.624Z" fill="#020212"/>
<path d="M1537.95 210.16H1536.72V355.312H1537.95V210.16Z" fill="#020212"/>
<path d="M1516.04 232.964H1514.81V288.55H1516.04V232.964Z" fill="#020212"/>
<path d="M1494.13 213.5H1492.9V291.107H1494.13V213.5Z" fill="#020212"/>
<path d="M1472.22 202.655H1470.98V311.395H1472.22V202.655Z" fill="#020212"/>
<path d="M1450.31 257.747H1449.07V326.735H1450.31V257.747Z" fill="#020212"/>
<path d="M1428.44 224.016H1427.2V344.755H1428.44V224.016Z" fill="#020212"/>
<path d="M1406.53 261.005H1405.29V296.921H1406.53V261.005Z" fill="#020212"/>
<path d="M1384.62 236.84H1383.38V286.447H1384.62V236.84Z" fill="#020212"/>
<path d="M1362.71 204.552H1361.47V303.725H1362.71V204.552Z" fill="#020212"/>
<path d="M1340.8 190.491H1339.56V282.489H1340.8V190.491Z" fill="#020212"/>
<path d="M1318.89 196.8H1317.65V303.148H1318.89V196.8Z" fill="#020212"/>
<path d="M1296.97 164.264H1295.74V296.509H1296.97V164.264Z" fill="#020212"/>
<path d="M1275.1 188.717H1273.87V298.323H1275.1V188.717Z" fill="#020212"/>
<path d="M1253.19 245.087H1251.96V305.457H1253.19V245.087Z" fill="#020212"/>
<path d="M1231.28 215.933H1230.05V304.344H1231.28V215.933Z" fill="#020212"/>
<path d="M1209.37 201.542H1208.14V356.755H1209.37V201.542Z" fill="#020212"/>
<path d="M1187.46 195.274H1186.23V430.981H1187.46V195.274Z" fill="#020212"/>
<path d="M1165.55 292.097H1164.32V492.753H1165.55V292.097Z" fill="#020212"/>
<path d="M1143.68 371.147H1142.45V503.391H1143.68V371.147Z" fill="#020212"/>
<path d="M1121.77 337.003H1120.54V492.216H1121.77V337.003Z" fill="#020212"/>
<path d="M1099.86 310.612H1098.62V452.918H1099.86V310.612Z" fill="#020212"/>
<path d="M1077.95 313.498H1076.71V468.712H1077.95V313.498Z" fill="#020212"/>
<path d="M1056.04 310.364H1054.8V378.404H1056.04V310.364Z" fill="#020212"/>
<path d="M1034.13 291.726H1032.89V436.877H1034.13V291.726Z" fill="#020212"/>
<path d="M1012.22 365.539H1010.98V430.197H1012.22V365.539Z" fill="#020212"/>
<path d="M990.347 355.436H989.111V479.062H990.347V355.436Z" fill="#020212"/>
<path d="M968.437 346.158H967.201V530.113H968.437V346.158Z" fill="#020212"/>
<path d="M946.525 411.971H945.289V530.772H946.525V411.971Z" fill="#020212"/>
<path d="M924.614 460.671H923.379V504.752H924.614V460.671Z" fill="#020212"/>
<path d="M902.704 343.807H901.469V608.255H902.704V343.807Z" fill="#020212"/>
<path d="M880.792 412.713H879.557V502.773H880.792V412.713Z" fill="#020212"/>
<path d="M858.882 390.61H857.646V570.772H858.882V390.61Z" fill="#020212"/>
<path d="M837.013 407.971H835.777V590.029H837.013V407.971Z" fill="#020212"/>
<path d="M815.101 402.693H813.865V521.494H815.101V402.693Z" fill="#020212"/>
<path d="M798.791 453.372H786.395V489.371H798.791V453.372Z" fill="#020212"/>
<path d="M1850.18 69.0085H1837.78V106.905H1850.18V69.0085Z" fill="#020212"/>
<path d="M1828.31 100.595H1815.92V128.471H1828.31V100.595Z" fill="#020212"/>
<path d="M1806.4 56.3902H1794V75.7712H1806.4V56.3902Z" fill="#020212"/>
<path d="M1784.49 71.194H1772.09V111.276H1784.49V71.194Z" fill="#020212"/>
<path d="M1762.58 129.337H1750.18V140.553H1762.58V129.337Z" fill="#020212"/>
<path d="M1740.67 140.553H1728.27V154.368H1740.67V140.553Z" fill="#020212"/>
<path d="M1718.76 162.45H1706.36V228.345H1718.76V162.45Z" fill="#020212"/>
<path d="M1696.85 230.119H1684.45V249.005H1696.85V230.119Z" fill="#020212"/>
<path d="M1674.98 255.067H1662.58V272.798H1674.98V255.067Z" fill="#020212"/>
<path d="M1653.07 248.964H1640.67V280.015H1653.07V248.964Z" fill="#020212"/>
<path d="M1631.16 269.169H1618.76V296.014H1631.16V269.169Z" fill="#020212"/>
<path d="M1609.24 335.519H1596.85V370.941H1609.24V335.519Z" fill="#020212"/>
<path d="M1587.33 337.828H1574.94V363.394H1587.33V337.828Z" fill="#020212"/>
<path d="M1565.42 288.757H1553.03V350.611H1565.42V288.757Z" fill="#020212"/>
<path d="M1543.55 260.716H1531.16V304.715H1543.55V260.716Z" fill="#020212"/>
<path d="M1521.64 252.304H1509.25V269.128H1521.64V252.304Z" fill="#020212"/>
<path d="M1499.73 240.551H1487.33V264.056H1499.73V240.551Z" fill="#020212"/>
<path d="M1477.82 240.551H1465.42V273.499H1477.82V240.551Z" fill="#020212"/>
<path d="M1455.91 281.788H1443.51V302.694H1455.91V281.788Z" fill="#020212"/>
<path d="M1434 266.118H1421.6V302.694H1434V266.118Z" fill="#020212"/>
<path d="M1412.09 273.499H1399.69V284.386H1412.09V273.499Z" fill="#020212"/>
<path d="M1390.22 254.118H1377.82V269.128H1390.22V254.118Z" fill="#020212"/>
<path d="M1368.31 239.108H1355.91V269.169H1368.31V239.108Z" fill="#020212"/>
<path d="M1346.4 222.572H1334V250.448H1346.4V222.572Z" fill="#020212"/>
<path d="M1324.49 233.871H1312.09V266.118H1324.49V233.871Z" fill="#020212"/>
<path d="M1302.58 210.366H1290.18V250.448H1302.58V210.366Z" fill="#020212"/>
<path d="M1280.66 226.902H1268.27V260.097H1280.66V226.902Z" fill="#020212"/>
<path d="M1258.75 266.118H1246.36V284.427H1258.75V266.118Z" fill="#020212"/>
<path d="M1236.89 246.737H1224.49V273.54H1236.89V246.737Z" fill="#020212"/>
<path d="M1214.97 255.644H1202.58V302.694H1214.97V255.644Z" fill="#020212"/>
<path d="M1193.06 277.417H1180.67V348.838H1193.06V277.417Z" fill="#020212"/>
<path d="M1171.15 342.323H1158.76V442.486H1171.15V342.323Z" fill="#020212"/>
<path d="M1149.24 417.249H1136.84V457.331H1149.24V417.249Z" fill="#020212"/>
<path d="M1127.33 391.105H1114.93V438.156H1127.33V391.105Z" fill="#020212"/>
<path d="M1105.46 360.178H1093.06V403.311H1105.46V360.178Z" fill="#020212"/>
<path d="M1083.55 367.6H1071.15V414.651H1083.55V367.6Z" fill="#020212"/>
<path d="M1061.64 334.034H1049.24V354.652H1061.64V334.034Z" fill="#020212"/>
<path d="M1039.73 342.323H1027.33V386.322H1039.73V342.323Z" fill="#020212"/>
<path d="M1017.82 388.054H1005.42V407.641H1017.82V388.054Z" fill="#020212"/>
<path d="M995.907 398.528H983.51V435.97H995.907V398.528Z" fill="#020212"/>
<path d="M973.997 410.28H961.6V466.031H973.997V410.28Z" fill="#020212"/>
<path d="M952.125 453.372H939.729V489.371H952.125V453.372Z" fill="#020212"/>
<path d="M930.215 476.052H917.818V489.412H930.215V476.052Z" fill="#020212"/>
<path d="M908.305 435.97H895.908V516.092H908.305V435.97Z" fill="#020212"/>
<path d="M886.393 444.094H873.996V471.392H886.393V444.094Z" fill="#020212"/>
<path d="M864.483 453.372H852.086V507.969H864.483V453.372Z" fill="#020212"/>
<path d="M842.573 471.392H830.176V526.566H842.573V471.392Z" fill="#020212"/>
<path d="M820.661 444.094H808.264V480.093H820.661V444.094Z" fill="#020212"/>
<path d="M773.228 428.785H771.992V553.813H773.228V428.785Z" fill="#020212"/>
<path d="M751.316 471.877H750.08V563.875H751.316V471.877Z" fill="#020212"/>
<path d="M729.405 437.444H728.17V501.402H729.405V437.444Z" fill="#020212"/>
<path d="M707.495 428.455H706.26V560.7H707.495V428.455Z" fill="#020212"/>
<path d="M685.583 519.752H684.348V556.782H685.583V519.752Z" fill="#020212"/>
<path d="M663.714 527.999H662.479V573.648H663.714V527.999Z" fill="#020212"/>
<path d="M641.804 489.979H640.568V707.501H641.804V489.979Z" fill="#020212"/>
<path d="M619.892 611.709H618.656V673.976H619.892V611.709Z" fill="#020212"/>
<path d="M597.982 638.018H596.746V696.45H597.982V638.018Z" fill="#020212"/>
<path d="M576.072 616.575H574.836V719.088H576.072V616.575Z" fill="#020212"/>
<path d="M554.159 641.605H552.924V730.222H554.159V641.605Z" fill="#020212"/>
<path d="M532.249 698.099H531.014V815.004H532.249V698.099Z" fill="#020212"/>
<path d="M510.38 711.748H509.145V796.076H510.38V711.748Z" fill="#020212"/>
<path d="M488.468 620.946H487.232V825.024H488.468V620.946Z" fill="#020212"/>
<path d="M466.558 613.482H465.322V758.634H466.558V613.482Z" fill="#020212"/>
<path d="M444.648 636.286H443.412V691.872H444.648V636.286Z" fill="#020212"/>
<path d="M422.736 616.822H421.5V694.429H422.736V616.822Z" fill="#020212"/>
<path d="M400.825 605.977H399.59V714.717H400.825V605.977Z" fill="#020212"/>
<path d="M378.915 661.069H377.68V730.057H378.915V661.069Z" fill="#020212"/>
<path d="M357.046 627.337H355.811V748.077H357.046V627.337Z" fill="#020212"/>
<path d="M335.134 664.326H333.898V700.243H335.134V664.326Z" fill="#020212"/>
<path d="M313.224 640.162H311.988V689.769H313.224V640.162Z" fill="#020212"/>
<path d="M291.314 607.874H290.078V707.047H291.314V607.874Z" fill="#020212"/>
<path d="M269.402 593.812H268.166V685.811H269.402V593.812Z" fill="#020212"/>
<path d="M247.491 600.122H246.256V706.47H247.491V600.122Z" fill="#020212"/>
<path d="M225.579 567.586H224.344V699.831H225.579V567.586Z" fill="#020212"/>
<path d="M203.71 592.039H202.475V701.645H203.71V592.039Z" fill="#020212"/>
<path d="M181.8 648.409H180.564V708.779H181.8V648.409Z" fill="#020212"/>
<path d="M159.89 619.255H158.654V707.666H159.89V619.255Z" fill="#020212"/>
<path d="M137.978 604.864H136.742V760.077H137.978V604.864Z" fill="#020212"/>
<path d="M116.068 598.596H114.832V834.302H116.068V598.596Z" fill="#020212"/>
<path d="M94.1574 695.419H92.9219V896.074H94.1574V695.419Z" fill="#020212"/>
<path d="M72.2864 774.469H71.0508V906.713H72.2864V774.469Z" fill="#020212"/>
<path d="M50.3762 740.325H49.1406V895.538H50.3762V740.325Z" fill="#020212"/>
<path d="M28.466 713.934H27.2305V856.24H28.466V713.934Z" fill="#020212"/>
<path d="M6.55393 716.82H5.31836V872.034H6.55393V716.82Z" fill="#020212"/>
<path d="M778.788 472.33H766.391V510.226H778.788V472.33Z" fill="#020212"/>
<path d="M756.916 503.917H744.52V531.793H756.916V503.917Z" fill="#020212"/>
<path d="M735.006 459.712H722.609V479.093H735.006V459.712Z" fill="#020212"/>
<path d="M713.096 474.516H700.699V514.598H713.096V474.516Z" fill="#020212"/>
<path d="M691.184 532.659H678.787V543.875H691.184V532.659Z" fill="#020212"/>
<path d="M669.274 543.875H656.877V557.689H669.274V543.875Z" fill="#020212"/>
<path d="M647.364 565.772H634.967V631.667H647.364V565.772Z" fill="#020212"/>
<path d="M625.452 633.44H613.055V652.327H625.452V633.44Z" fill="#020212"/>
<path d="M603.582 658.388H591.186V676.12H603.582V658.388Z" fill="#020212"/>
<path d="M581.672 652.285H569.275V683.336H581.672V652.285Z" fill="#020212"/>
<path d="M559.76 672.491H547.363V699.336H559.76V672.491Z" fill="#020212"/>
<path d="M537.85 738.84H525.453V774.262H537.85V738.84Z" fill="#020212"/>
<path d="M515.94 741.15H503.543V766.716H515.94V741.15Z" fill="#020212"/>
<path d="M494.028 692.078H481.631V753.933H494.028V692.078Z" fill="#020212"/>
<path d="M472.159 664.038H459.762V708.037H472.159V664.038Z" fill="#020212"/>
<path d="M450.249 655.626H437.852V672.45H450.249V655.626Z" fill="#020212"/>
<path d="M428.336 643.873H415.939V667.378H428.336V643.873Z" fill="#020212"/>
<path d="M406.426 643.873H394.029V676.821H406.426V643.873Z" fill="#020212"/>
<path d="M384.516 685.109H372.119V706.016H384.516V685.109Z" fill="#020212"/>
<path d="M362.604 669.44H350.207V706.016H362.604V669.44Z" fill="#020212"/>
<path d="M340.694 676.821H328.297V687.707H340.694V676.821Z" fill="#020212"/>
<path d="M318.825 657.44H306.428V672.45H318.825V657.44Z" fill="#020212"/>
<path d="M296.913 642.43H284.516V672.491H296.913V642.43Z" fill="#020212"/>
<path d="M275.002 625.894H262.605V653.77H275.002V625.894Z" fill="#020212"/>
<path d="M253.092 637.193H240.695V669.44H253.092V637.193Z" fill="#020212"/>
<path d="M231.18 613.688H218.783V653.77H231.18V613.688Z" fill="#020212"/>
<path d="M209.27 630.224H196.873V663.419H209.27V630.224Z" fill="#020212"/>
<path d="M187.36 669.44H174.963V687.749H187.36V669.44Z" fill="#020212"/>
<path d="M165.491 650.059H153.094V676.862H165.491V650.059Z" fill="#020212"/>
<path d="M143.579 658.966H131.182V706.016H143.579V658.966Z" fill="#020212"/>
<path d="M121.668 680.738H109.271V752.16H121.668V680.738Z" fill="#020212"/>
<path d="M99.7582 745.644H87.3613V845.807H99.7582V745.644Z" fill="#020212"/>
<path d="M34.0668 763.5H21.6699V806.633H34.0668V763.5Z" fill="#020212"/>
<path d="M12.1547 770.922H-0.242188V817.973H12.1547V770.922Z" fill="#020212"/>
</g>
<defs>
<clipPath id="clip0_417_3404">
<rect width="1849" height="786" fill="white"/>
</clipPath>
</defs>
</svg>
